<mxfile host="Electron" modified="2021-06-16T08:54:54.269Z" agent="5.0 (X11; Linux x86_64) AppleWebKit/537.36 (KHTML, like Gecko) draw.io/14.6.13 Chrome/89.0.4389.128 Electron/12.0.7 Safari/537.36" etag="enAfNraBH3EuyuhpUZmX" compressed="false" version="14.6.13" type="device">
  <diagram id="RKKCbuWFXUTvwM_k07z_" name="Page-1">
    <mxGraphModel dx="1422" dy="778" grid="1" gridSize="10" guides="1" tooltips="1" connect="1" arrows="1" fold="1" page="1" pageScale="1" pageWidth="2336" pageHeight="1654" math="0" shadow="0">
      <root>
        <mxCell id="0" />
        <mxCell id="1" parent="0" />
        <mxCell id="ddxZkmj4-rbbM2WaYGvC-64" value="" style="rounded=0;whiteSpace=wrap;html=1;strokeColor=#000000;" parent="1" vertex="1">
          <mxGeometry x="20" y="10" width="490" height="800" as="geometry" />
        </mxCell>
        <mxCell id="ddxZkmj4-rbbM2WaYGvC-1" value="Navbar" style="rounded=0;whiteSpace=wrap;html=1;fillColor=#d5e8d4;" parent="1" vertex="1">
          <mxGeometry x="150" y="260" width="240" height="60" as="geometry" />
        </mxCell>
        <mxCell id="ddxZkmj4-rbbM2WaYGvC-2" value="Profile Headings" style="rounded=0;whiteSpace=wrap;html=1;fillColor=#e1d5e7;" parent="1" vertex="1">
          <mxGeometry x="150" y="320" width="120" height="60" as="geometry" />
        </mxCell>
        <mxCell id="ddxZkmj4-rbbM2WaYGvC-3" value="Informations" style="rounded=0;whiteSpace=wrap;html=1;" parent="1" vertex="1">
          <mxGeometry x="150" y="380" width="120" height="60" as="geometry" />
        </mxCell>
        <mxCell id="ddxZkmj4-rbbM2WaYGvC-4" value="Sidebar cards" style="rounded=0;whiteSpace=wrap;html=1;verticalAlign=top;fillColor=#e1d5e7;" parent="1" vertex="1">
          <mxGeometry x="270" y="320" width="120" height="420" as="geometry" />
        </mxCell>
        <mxCell id="ddxZkmj4-rbbM2WaYGvC-5" value="Activities &lt;br&gt;[ UI to polish ]" style="rounded=0;whiteSpace=wrap;html=1;fillColor=#d5e8d4;strokeColor=#82b366;" parent="1" vertex="1">
          <mxGeometry x="150" y="440" width="120" height="60" as="geometry" />
        </mxCell>
        <mxCell id="ddxZkmj4-rbbM2WaYGvC-6" value="Experiences" style="rounded=0;whiteSpace=wrap;html=1;" parent="1" vertex="1">
          <mxGeometry x="150" y="500" width="120" height="60" as="geometry" />
        </mxCell>
        <mxCell id="ddxZkmj4-rbbM2WaYGvC-7" value="Formation" style="rounded=0;whiteSpace=wrap;html=1;" parent="1" vertex="1">
          <mxGeometry x="150" y="560" width="120" height="60" as="geometry" />
        </mxCell>
        <mxCell id="ddxZkmj4-rbbM2WaYGvC-8" value="Skills&lt;br&gt;[ UI to polish ]" style="rounded=0;whiteSpace=wrap;html=1;fillColor=#d5e8d4;strokeColor=#82b366;" parent="1" vertex="1">
          <mxGeometry x="150" y="620" width="120" height="60" as="geometry" />
        </mxCell>
        <mxCell id="ddxZkmj4-rbbM2WaYGvC-9" value="references" style="rounded=0;whiteSpace=wrap;html=1;" parent="1" vertex="1">
          <mxGeometry x="150" y="680" width="120" height="60" as="geometry" />
        </mxCell>
        <mxCell id="ddxZkmj4-rbbM2WaYGvC-10" value="Profile cards" style="rounded=0;whiteSpace=wrap;html=1;fillColor=#d5e8d4;" parent="1" vertex="1">
          <mxGeometry x="280" y="350" width="100" height="60" as="geometry" />
        </mxCell>
        <mxCell id="ddxZkmj4-rbbM2WaYGvC-11" value="..." style="rounded=0;whiteSpace=wrap;html=1;" parent="1" vertex="1">
          <mxGeometry x="280" y="420" width="100" height="60" as="geometry" />
        </mxCell>
        <mxCell id="ddxZkmj4-rbbM2WaYGvC-21" value="2" style="rounded=0;whiteSpace=wrap;html=1;" parent="1" vertex="1">
          <mxGeometry x="100" y="635" width="50" height="30" as="geometry" />
        </mxCell>
        <mxCell id="ddxZkmj4-rbbM2WaYGvC-22" value="3" style="rounded=0;whiteSpace=wrap;html=1;" parent="1" vertex="1">
          <mxGeometry x="390" y="370" width="50" height="30" as="geometry" />
        </mxCell>
        <mxCell id="ddxZkmj4-rbbM2WaYGvC-23" value="2" style="rounded=0;whiteSpace=wrap;html=1;" parent="1" vertex="1">
          <mxGeometry x="100" y="690" width="50" height="30" as="geometry" />
        </mxCell>
        <mxCell id="ddxZkmj4-rbbM2WaYGvC-24" value="1" style="rounded=0;whiteSpace=wrap;html=1;" parent="1" vertex="1">
          <mxGeometry x="100" y="515" width="50" height="30" as="geometry" />
        </mxCell>
        <mxCell id="ddxZkmj4-rbbM2WaYGvC-25" value="1" style="rounded=0;whiteSpace=wrap;html=1;" parent="1" vertex="1">
          <mxGeometry x="100" y="575" width="50" height="30" as="geometry" />
        </mxCell>
        <mxCell id="ddxZkmj4-rbbM2WaYGvC-30" value="3" style="rounded=0;whiteSpace=wrap;html=1;" parent="1" vertex="1">
          <mxGeometry x="100" y="275" width="50" height="30" as="geometry" />
        </mxCell>
        <mxCell id="ddxZkmj4-rbbM2WaYGvC-31" value="3" style="rounded=0;whiteSpace=wrap;html=1;" parent="1" vertex="1">
          <mxGeometry x="100" y="335" width="50" height="30" as="geometry" />
        </mxCell>
        <mxCell id="ddxZkmj4-rbbM2WaYGvC-32" value="1" style="rounded=0;whiteSpace=wrap;html=1;" parent="1" vertex="1">
          <mxGeometry x="100" y="395" width="50" height="30" as="geometry" />
        </mxCell>
        <mxCell id="ddxZkmj4-rbbM2WaYGvC-33" value="2" style="rounded=0;whiteSpace=wrap;html=1;" parent="1" vertex="1">
          <mxGeometry x="100" y="455" width="50" height="30" as="geometry" />
        </mxCell>
        <mxCell id="ddxZkmj4-rbbM2WaYGvC-35" value="" style="rounded=0;whiteSpace=wrap;html=1;fillColor=#f8cecc;strokeColor=#b85450;" parent="1" vertex="1">
          <mxGeometry x="440" y="370" width="40" height="30" as="geometry" />
        </mxCell>
        <mxCell id="ddxZkmj4-rbbM2WaYGvC-36" value="" style="rounded=0;whiteSpace=wrap;html=1;fillColor=#ffe6cc;strokeColor=#d79b00;" parent="1" vertex="1">
          <mxGeometry x="60" y="275" width="40" height="30" as="geometry" />
        </mxCell>
        <mxCell id="ddxZkmj4-rbbM2WaYGvC-37" value="" style="rounded=0;whiteSpace=wrap;html=1;fillColor=#f8cecc;strokeColor=#b85450;" parent="1" vertex="1">
          <mxGeometry x="60" y="335" width="40" height="30" as="geometry" />
        </mxCell>
        <mxCell id="ddxZkmj4-rbbM2WaYGvC-38" value="" style="rounded=0;whiteSpace=wrap;html=1;fillColor=#ffe6cc;strokeColor=#d79b00;" parent="1" vertex="1">
          <mxGeometry x="60" y="395" width="40" height="30" as="geometry" />
        </mxCell>
        <mxCell id="ddxZkmj4-rbbM2WaYGvC-39" value="" style="rounded=0;whiteSpace=wrap;html=1;fillColor=#dae8fc;strokeColor=#6c8ebf;" parent="1" vertex="1">
          <mxGeometry x="60" y="455" width="40" height="30" as="geometry" />
        </mxCell>
        <mxCell id="ddxZkmj4-rbbM2WaYGvC-40" value="" style="rounded=0;whiteSpace=wrap;html=1;fillColor=#ffe6cc;strokeColor=#d79b00;" parent="1" vertex="1">
          <mxGeometry x="60" y="575" width="40" height="30" as="geometry" />
        </mxCell>
        <mxCell id="ddxZkmj4-rbbM2WaYGvC-41" value="" style="rounded=0;whiteSpace=wrap;html=1;fillColor=#ffe6cc;strokeColor=#d79b00;" parent="1" vertex="1">
          <mxGeometry x="60" y="515" width="40" height="30" as="geometry" />
        </mxCell>
        <mxCell id="ddxZkmj4-rbbM2WaYGvC-42" value="" style="rounded=0;whiteSpace=wrap;html=1;fillColor=#dae8fc;strokeColor=#6c8ebf;" parent="1" vertex="1">
          <mxGeometry x="60" y="635" width="40" height="30" as="geometry" />
        </mxCell>
        <mxCell id="ddxZkmj4-rbbM2WaYGvC-43" value="" style="rounded=0;whiteSpace=wrap;html=1;fillColor=#dae8fc;strokeColor=#6c8ebf;" parent="1" vertex="1">
          <mxGeometry x="60" y="690" width="40" height="30" as="geometry" />
        </mxCell>
        <mxCell id="ddxZkmj4-rbbM2WaYGvC-51" value="" style="rounded=0;whiteSpace=wrap;html=1;fillColor=#d5e8d4;strokeColor=#82b366;" parent="1" vertex="1">
          <mxGeometry x="290" y="20" width="40" height="40" as="geometry" />
        </mxCell>
        <mxCell id="ddxZkmj4-rbbM2WaYGvC-52" value="" style="rounded=0;whiteSpace=wrap;html=1;fillColor=#e1d5e7;strokeColor=#9673a6;" parent="1" vertex="1">
          <mxGeometry x="290" y="95" width="40" height="40" as="geometry" />
        </mxCell>
        <mxCell id="ddxZkmj4-rbbM2WaYGvC-53" value="&lt;meta charset=&quot;utf-8&quot;&gt;&lt;span style=&quot;color: rgb(0, 0, 0); font-family: helvetica; font-size: 12px; font-style: normal; font-weight: 400; letter-spacing: normal; text-align: center; text-indent: 0px; text-transform: none; word-spacing: 0px; background-color: rgb(248, 249, 250); display: inline; float: none;&quot;&gt;Done&lt;/span&gt;" style="text;whiteSpace=wrap;html=1;" parent="1" vertex="1">
          <mxGeometry x="340" y="25" width="50" height="30" as="geometry" />
        </mxCell>
        <mxCell id="ddxZkmj4-rbbM2WaYGvC-54" value="&lt;span style=&quot;color: rgb(0 , 0 , 0) ; font-family: &amp;#34;helvetica&amp;#34; ; font-size: 12px ; font-style: normal ; font-weight: 400 ; letter-spacing: normal ; text-align: center ; text-indent: 0px ; text-transform: none ; word-spacing: 0px ; background-color: rgb(248 , 249 , 250) ; display: inline ; float: none&quot;&gt;In Progress&lt;/span&gt;" style="text;whiteSpace=wrap;html=1;" parent="1" vertex="1">
          <mxGeometry x="340" y="100" width="70" height="30" as="geometry" />
        </mxCell>
        <mxCell id="ddxZkmj4-rbbM2WaYGvC-55" value="Footer" style="rounded=0;whiteSpace=wrap;html=1;fillColor=#e1d5e7;strokeColor=#9673a6;" parent="1" vertex="1">
          <mxGeometry x="150" y="740" width="240" height="60" as="geometry" />
        </mxCell>
        <mxCell id="ddxZkmj4-rbbM2WaYGvC-56" value="1" style="rounded=0;whiteSpace=wrap;html=1;" parent="1" vertex="1">
          <mxGeometry x="100" y="755" width="50" height="30" as="geometry" />
        </mxCell>
        <mxCell id="ddxZkmj4-rbbM2WaYGvC-57" value="" style="rounded=0;whiteSpace=wrap;html=1;fillColor=#ffe6cc;strokeColor=#d79b00;" parent="1" vertex="1">
          <mxGeometry x="60" y="755" width="40" height="30" as="geometry" />
        </mxCell>
        <mxCell id="ddxZkmj4-rbbM2WaYGvC-58" value="" style="rounded=0;whiteSpace=wrap;html=1;fillColor=#ffe6cc;strokeColor=#d79b00;" parent="1" vertex="1">
          <mxGeometry x="150" y="20" width="40" height="40" as="geometry" />
        </mxCell>
        <mxCell id="ddxZkmj4-rbbM2WaYGvC-59" value="&lt;div style=&quot;text-align: center&quot;&gt;&lt;span&gt;&lt;font face=&quot;helvetica&quot;&gt;Vardan&lt;/font&gt;&lt;/span&gt;&lt;/div&gt;" style="text;whiteSpace=wrap;html=1;" parent="1" vertex="1">
          <mxGeometry x="200" y="25" width="70" height="30" as="geometry" />
        </mxCell>
        <mxCell id="ddxZkmj4-rbbM2WaYGvC-60" value="" style="rounded=0;whiteSpace=wrap;html=1;fillColor=#dae8fc;strokeColor=#6c8ebf;" parent="1" vertex="1">
          <mxGeometry x="150" y="80" width="40" height="40" as="geometry" />
        </mxCell>
        <mxCell id="ddxZkmj4-rbbM2WaYGvC-61" value="&lt;div style=&quot;text-align: center&quot;&gt;&lt;span&gt;&lt;font face=&quot;helvetica&quot;&gt;Mike&lt;/font&gt;&lt;/span&gt;&lt;/div&gt;" style="text;whiteSpace=wrap;html=1;" parent="1" vertex="1">
          <mxGeometry x="200" y="85" width="70" height="30" as="geometry" />
        </mxCell>
        <mxCell id="ddxZkmj4-rbbM2WaYGvC-62" value="" style="rounded=0;whiteSpace=wrap;html=1;fillColor=#f8cecc;strokeColor=#b85450;" parent="1" vertex="1">
          <mxGeometry x="150" y="140" width="40" height="40" as="geometry" />
        </mxCell>
        <mxCell id="ddxZkmj4-rbbM2WaYGvC-63" value="&lt;div style=&quot;text-align: center&quot;&gt;&lt;span&gt;&lt;font face=&quot;helvetica&quot;&gt;Max&lt;/font&gt;&lt;/span&gt;&lt;/div&gt;" style="text;whiteSpace=wrap;html=1;" parent="1" vertex="1">
          <mxGeometry x="200" y="145" width="70" height="30" as="geometry" />
        </mxCell>
        <mxCell id="MG8-CIF4gp6mlghts_CX-2" value="" style="rounded=0;whiteSpace=wrap;html=1;strokeColor=#000000;" parent="1" vertex="1">
          <mxGeometry x="530" y="10" width="490" height="800" as="geometry" />
        </mxCell>
        <mxCell id="MG8-CIF4gp6mlghts_CX-3" value="Navbar" style="rounded=0;whiteSpace=wrap;html=1;fillColor=#d5e8d4;" parent="1" vertex="1">
          <mxGeometry x="660" y="260" width="240" height="60" as="geometry" />
        </mxCell>
        <mxCell id="MG8-CIF4gp6mlghts_CX-4" value="Profile Headings" style="rounded=0;whiteSpace=wrap;html=1;" parent="1" vertex="1">
          <mxGeometry x="660" y="320" width="120" height="60" as="geometry" />
        </mxCell>
        <mxCell id="MG8-CIF4gp6mlghts_CX-5" value="Informations&lt;br&gt;[ UI to polish ]" style="rounded=0;whiteSpace=wrap;html=1;fillColor=#fff2cc;" parent="1" vertex="1">
          <mxGeometry x="660" y="380" width="120" height="60" as="geometry" />
        </mxCell>
        <mxCell id="MG8-CIF4gp6mlghts_CX-6" value="Sidebar cards" style="rounded=0;whiteSpace=wrap;html=1;verticalAlign=top;fillColor=#d5e8d4;" parent="1" vertex="1">
          <mxGeometry x="780" y="320" width="120" height="420" as="geometry" />
        </mxCell>
        <mxCell id="MG8-CIF4gp6mlghts_CX-7" value="Activities &#xa;" style="rounded=0;whiteSpace=wrap;fillColor=#d5e8d4;strokeColor=#000000;verticalAlign=middle;" parent="1" vertex="1">
          <mxGeometry x="660" y="440" width="120" height="60" as="geometry" />
        </mxCell>
        <mxCell id="MG8-CIF4gp6mlghts_CX-8" value="Experiences&lt;br&gt;" style="rounded=0;whiteSpace=wrap;html=1;fillColor=#d5e8d4;verticalAlign=top;" parent="1" vertex="1">
          <mxGeometry x="660" y="500" width="120" height="120" as="geometry" />
        </mxCell>
        <mxCell id="MG8-CIF4gp6mlghts_CX-10" value="Skills&lt;br&gt;[ UI to polish ]" style="rounded=0;whiteSpace=wrap;html=1;fillColor=#fff2cc;" parent="1" vertex="1">
          <mxGeometry x="660" y="620" width="120" height="60" as="geometry" />
        </mxCell>
        <mxCell id="MG8-CIF4gp6mlghts_CX-11" value="references&lt;br&gt;" style="rounded=0;whiteSpace=wrap;html=1;" parent="1" vertex="1">
          <mxGeometry x="660" y="680" width="120" height="60" as="geometry" />
        </mxCell>
        <mxCell id="MG8-CIF4gp6mlghts_CX-12" value="Profile cards" style="rounded=0;whiteSpace=wrap;html=1;fillColor=#d5e8d4;" parent="1" vertex="1">
          <mxGeometry x="790" y="350" width="100" height="60" as="geometry" />
        </mxCell>
        <mxCell id="MG8-CIF4gp6mlghts_CX-13" value="..." style="rounded=0;whiteSpace=wrap;html=1;fillColor=#d5e8d4;" parent="1" vertex="1">
          <mxGeometry x="790" y="420" width="100" height="60" as="geometry" />
        </mxCell>
        <mxCell id="MG8-CIF4gp6mlghts_CX-14" value="2" style="rounded=0;whiteSpace=wrap;html=1;" parent="1" vertex="1">
          <mxGeometry x="610" y="635" width="50" height="30" as="geometry" />
        </mxCell>
        <mxCell id="MG8-CIF4gp6mlghts_CX-15" value="2" style="rounded=0;whiteSpace=wrap;html=1;" parent="1" vertex="1">
          <mxGeometry x="900" y="370" width="50" height="30" as="geometry" />
        </mxCell>
        <mxCell id="MG8-CIF4gp6mlghts_CX-16" value="2" style="rounded=0;whiteSpace=wrap;html=1;" parent="1" vertex="1">
          <mxGeometry x="610" y="690" width="50" height="30" as="geometry" />
        </mxCell>
        <mxCell id="MG8-CIF4gp6mlghts_CX-17" value="1" style="rounded=0;whiteSpace=wrap;html=1;" parent="1" vertex="1">
          <mxGeometry x="610" y="515" width="50" height="30" as="geometry" />
        </mxCell>
        <mxCell id="MG8-CIF4gp6mlghts_CX-18" value="1" style="rounded=0;whiteSpace=wrap;html=1;" parent="1" vertex="1">
          <mxGeometry x="610" y="575" width="50" height="30" as="geometry" />
        </mxCell>
        <mxCell id="MG8-CIF4gp6mlghts_CX-19" value="3" style="rounded=0;whiteSpace=wrap;html=1;" parent="1" vertex="1">
          <mxGeometry x="610" y="275" width="50" height="30" as="geometry" />
        </mxCell>
        <mxCell id="MG8-CIF4gp6mlghts_CX-20" value="3" style="rounded=0;whiteSpace=wrap;html=1;" parent="1" vertex="1">
          <mxGeometry x="610" y="335" width="50" height="30" as="geometry" />
        </mxCell>
        <mxCell id="MG8-CIF4gp6mlghts_CX-21" value="1" style="rounded=0;whiteSpace=wrap;html=1;" parent="1" vertex="1">
          <mxGeometry x="610" y="395" width="50" height="30" as="geometry" />
        </mxCell>
        <mxCell id="MG8-CIF4gp6mlghts_CX-22" value="2" style="rounded=0;whiteSpace=wrap;html=1;" parent="1" vertex="1">
          <mxGeometry x="610" y="455" width="50" height="30" as="geometry" />
        </mxCell>
        <mxCell id="MG8-CIF4gp6mlghts_CX-23" value="" style="rounded=0;whiteSpace=wrap;html=1;fillColor=#f8cecc;strokeColor=#b85450;" parent="1" vertex="1">
          <mxGeometry x="950" y="370" width="40" height="30" as="geometry" />
        </mxCell>
        <mxCell id="MG8-CIF4gp6mlghts_CX-25" value="" style="rounded=0;whiteSpace=wrap;html=1;fillColor=#ffe6cc;strokeColor=#d79b00;" parent="1" vertex="1">
          <mxGeometry x="570" y="335" width="40" height="30" as="geometry" />
        </mxCell>
        <mxCell id="MG8-CIF4gp6mlghts_CX-26" value="" style="rounded=0;whiteSpace=wrap;html=1;fillColor=#dae8fc;strokeColor=#6c8ebf;" parent="1" vertex="1">
          <mxGeometry x="570" y="395" width="40" height="30" as="geometry" />
        </mxCell>
        <mxCell id="MG8-CIF4gp6mlghts_CX-27" value="" style="rounded=0;whiteSpace=wrap;html=1;fillColor=#f8cecc;strokeColor=#b85450;" parent="1" vertex="1">
          <mxGeometry x="570" y="455" width="40" height="30" as="geometry" />
        </mxCell>
        <mxCell id="MG8-CIF4gp6mlghts_CX-28" value="" style="rounded=0;whiteSpace=wrap;html=1;fillColor=#dae8fc;strokeColor=#6c8ebf;" parent="1" vertex="1">
          <mxGeometry x="570" y="575" width="40" height="30" as="geometry" />
        </mxCell>
        <mxCell id="MG8-CIF4gp6mlghts_CX-29" value="" style="rounded=0;whiteSpace=wrap;html=1;fillColor=#dae8fc;strokeColor=#6c8ebf;" parent="1" vertex="1">
          <mxGeometry x="570" y="515" width="40" height="30" as="geometry" />
        </mxCell>
        <mxCell id="MG8-CIF4gp6mlghts_CX-30" value="" style="rounded=0;whiteSpace=wrap;html=1;fillColor=#f8cecc;strokeColor=#b85450;" parent="1" vertex="1">
          <mxGeometry x="570" y="635" width="40" height="30" as="geometry" />
        </mxCell>
        <mxCell id="MG8-CIF4gp6mlghts_CX-32" value="" style="rounded=0;whiteSpace=wrap;html=1;fillColor=#d5e8d4;strokeColor=#82b366;" parent="1" vertex="1">
          <mxGeometry x="800" y="20" width="40" height="40" as="geometry" />
        </mxCell>
        <mxCell id="MG8-CIF4gp6mlghts_CX-33" value="" style="rounded=0;whiteSpace=wrap;html=1;fillColor=#e1d5e7;strokeColor=#9673a6;" parent="1" vertex="1">
          <mxGeometry x="800" y="95" width="40" height="40" as="geometry" />
        </mxCell>
        <mxCell id="MG8-CIF4gp6mlghts_CX-34" value="&lt;meta charset=&quot;utf-8&quot;&gt;&lt;span style=&quot;color: rgb(0, 0, 0); font-family: helvetica; font-size: 12px; font-style: normal; font-weight: 400; letter-spacing: normal; text-align: center; text-indent: 0px; text-transform: none; word-spacing: 0px; background-color: rgb(248, 249, 250); display: inline; float: none;&quot;&gt;Done&lt;/span&gt;" style="text;whiteSpace=wrap;html=1;" parent="1" vertex="1">
          <mxGeometry x="850" y="25" width="50" height="30" as="geometry" />
        </mxCell>
        <mxCell id="MG8-CIF4gp6mlghts_CX-35" value="&lt;span style=&quot;color: rgb(0 , 0 , 0) ; font-family: &amp;#34;helvetica&amp;#34; ; font-size: 12px ; font-style: normal ; font-weight: 400 ; letter-spacing: normal ; text-align: center ; text-indent: 0px ; text-transform: none ; word-spacing: 0px ; background-color: rgb(248 , 249 , 250) ; display: inline ; float: none&quot;&gt;In Progress&lt;/span&gt;" style="text;whiteSpace=wrap;html=1;" parent="1" vertex="1">
          <mxGeometry x="850" y="100" width="70" height="30" as="geometry" />
        </mxCell>
        <mxCell id="MG8-CIF4gp6mlghts_CX-36" value="Footer" style="rounded=0;whiteSpace=wrap;html=1;fillColor=#d5e8d4;strokeColor=#000000;" parent="1" vertex="1">
          <mxGeometry x="660" y="740" width="240" height="60" as="geometry" />
        </mxCell>
        <mxCell id="MG8-CIF4gp6mlghts_CX-37" value="1" style="rounded=0;whiteSpace=wrap;html=1;" parent="1" vertex="1">
          <mxGeometry x="610" y="755" width="50" height="30" as="geometry" />
        </mxCell>
        <mxCell id="MG8-CIF4gp6mlghts_CX-38" value="" style="rounded=0;whiteSpace=wrap;html=1;fillColor=#ffe6cc;strokeColor=#d79b00;" parent="1" vertex="1">
          <mxGeometry x="570" y="755" width="40" height="30" as="geometry" />
        </mxCell>
        <mxCell id="MG8-CIF4gp6mlghts_CX-39" value="" style="rounded=0;whiteSpace=wrap;html=1;fillColor=#ffe6cc;strokeColor=#d79b00;" parent="1" vertex="1">
          <mxGeometry x="660" y="20" width="40" height="40" as="geometry" />
        </mxCell>
        <mxCell id="MG8-CIF4gp6mlghts_CX-40" value="&lt;div style=&quot;text-align: center&quot;&gt;&lt;span&gt;&lt;font face=&quot;helvetica&quot;&gt;Vardan&lt;/font&gt;&lt;/span&gt;&lt;/div&gt;" style="text;whiteSpace=wrap;html=1;" parent="1" vertex="1">
          <mxGeometry x="710" y="25" width="70" height="30" as="geometry" />
        </mxCell>
        <mxCell id="MG8-CIF4gp6mlghts_CX-41" value="" style="rounded=0;whiteSpace=wrap;html=1;fillColor=#dae8fc;strokeColor=#6c8ebf;" parent="1" vertex="1">
          <mxGeometry x="660" y="80" width="40" height="40" as="geometry" />
        </mxCell>
        <mxCell id="MG8-CIF4gp6mlghts_CX-42" value="&lt;div style=&quot;text-align: center&quot;&gt;&lt;span&gt;&lt;font face=&quot;helvetica&quot;&gt;Mike&lt;/font&gt;&lt;/span&gt;&lt;/div&gt;" style="text;whiteSpace=wrap;html=1;" parent="1" vertex="1">
          <mxGeometry x="710" y="85" width="70" height="30" as="geometry" />
        </mxCell>
        <mxCell id="MG8-CIF4gp6mlghts_CX-43" value="" style="rounded=0;whiteSpace=wrap;html=1;fillColor=#f8cecc;strokeColor=#b85450;" parent="1" vertex="1">
          <mxGeometry x="660" y="140" width="40" height="40" as="geometry" />
        </mxCell>
        <mxCell id="MG8-CIF4gp6mlghts_CX-44" value="&lt;div style=&quot;text-align: center&quot;&gt;&lt;span&gt;&lt;font face=&quot;helvetica&quot;&gt;Max&lt;/font&gt;&lt;/span&gt;&lt;/div&gt;" style="text;whiteSpace=wrap;html=1;" parent="1" vertex="1">
          <mxGeometry x="710" y="145" width="70" height="30" as="geometry" />
        </mxCell>
        <mxCell id="GdukeoaLqOBDMS8CwBIc-1" value="2" style="rounded=0;whiteSpace=wrap;html=1;" parent="1" vertex="1">
          <mxGeometry x="890" y="435" width="50" height="30" as="geometry" />
        </mxCell>
        <mxCell id="GdukeoaLqOBDMS8CwBIc-2" value="" style="rounded=0;whiteSpace=wrap;html=1;fillColor=#f8cecc;strokeColor=#b85450;" parent="1" vertex="1">
          <mxGeometry x="940" y="435" width="40" height="30" as="geometry" />
        </mxCell>
        <mxCell id="3h8HmO69oXsrCkOUnHmT-1" value="" style="rounded=0;whiteSpace=wrap;html=1;strokeColor=#000000;" vertex="1" parent="1">
          <mxGeometry x="1040" y="10" width="880" height="800" as="geometry" />
        </mxCell>
        <mxCell id="3h8HmO69oXsrCkOUnHmT-2" value="Navbar" style="rounded=0;whiteSpace=wrap;html=1;fillColor=#d5e8d4;" vertex="1" parent="1">
          <mxGeometry x="1170" y="260" width="240" height="60" as="geometry" />
        </mxCell>
        <mxCell id="3h8HmO69oXsrCkOUnHmT-3" value="Profile Headings" style="rounded=0;whiteSpace=wrap;html=1;" vertex="1" parent="1">
          <mxGeometry x="1170" y="320" width="120" height="60" as="geometry" />
        </mxCell>
        <mxCell id="3h8HmO69oXsrCkOUnHmT-4" value="Informations&lt;br&gt;[ UI to polish ]&lt;br&gt;[ API should work ]" style="rounded=0;whiteSpace=wrap;html=1;fillColor=#fff2cc;" vertex="1" parent="1">
          <mxGeometry x="1170" y="380" width="120" height="60" as="geometry" />
        </mxCell>
        <mxCell id="3h8HmO69oXsrCkOUnHmT-5" value="Sidebar cards" style="rounded=0;whiteSpace=wrap;html=1;verticalAlign=top;fillColor=#d5e8d4;" vertex="1" parent="1">
          <mxGeometry x="1290" y="320" width="120" height="420" as="geometry" />
        </mxCell>
        <mxCell id="3h8HmO69oXsrCkOUnHmT-6" value="Activities &#xa;" style="rounded=0;whiteSpace=wrap;fillColor=#d5e8d4;strokeColor=#000000;verticalAlign=middle;" vertex="1" parent="1">
          <mxGeometry x="1170" y="440" width="120" height="60" as="geometry" />
        </mxCell>
        <mxCell id="3h8HmO69oXsrCkOUnHmT-7" value="Experiences&lt;br&gt;" style="rounded=0;whiteSpace=wrap;html=1;fillColor=#d5e8d4;verticalAlign=top;" vertex="1" parent="1">
          <mxGeometry x="1170" y="500" width="120" height="120" as="geometry" />
        </mxCell>
        <mxCell id="3h8HmO69oXsrCkOUnHmT-8" value="Skills&lt;br&gt;[ UI to polish ]" style="rounded=0;whiteSpace=wrap;html=1;fillColor=#fff2cc;" vertex="1" parent="1">
          <mxGeometry x="1170" y="620" width="120" height="60" as="geometry" />
        </mxCell>
        <mxCell id="3h8HmO69oXsrCkOUnHmT-9" value="references&lt;br&gt;" style="rounded=0;whiteSpace=wrap;html=1;" vertex="1" parent="1">
          <mxGeometry x="1170" y="680" width="120" height="60" as="geometry" />
        </mxCell>
        <mxCell id="3h8HmO69oXsrCkOUnHmT-10" value="Profile cards" style="rounded=0;whiteSpace=wrap;html=1;fillColor=#d5e8d4;" vertex="1" parent="1">
          <mxGeometry x="1300" y="350" width="100" height="60" as="geometry" />
        </mxCell>
        <mxCell id="3h8HmO69oXsrCkOUnHmT-11" value="..." style="rounded=0;whiteSpace=wrap;html=1;fillColor=#d5e8d4;" vertex="1" parent="1">
          <mxGeometry x="1300" y="420" width="100" height="60" as="geometry" />
        </mxCell>
        <mxCell id="3h8HmO69oXsrCkOUnHmT-28" value="" style="rounded=0;whiteSpace=wrap;html=1;fillColor=#d5e8d4;strokeColor=#82b366;" vertex="1" parent="1">
          <mxGeometry x="1310" y="20" width="40" height="40" as="geometry" />
        </mxCell>
        <mxCell id="3h8HmO69oXsrCkOUnHmT-29" value="" style="rounded=0;whiteSpace=wrap;html=1;fillColor=#e1d5e7;strokeColor=#9673a6;" vertex="1" parent="1">
          <mxGeometry x="1310" y="95" width="40" height="40" as="geometry" />
        </mxCell>
        <mxCell id="3h8HmO69oXsrCkOUnHmT-30" value="&lt;meta charset=&quot;utf-8&quot;&gt;&lt;span style=&quot;color: rgb(0, 0, 0); font-family: helvetica; font-size: 12px; font-style: normal; font-weight: 400; letter-spacing: normal; text-align: center; text-indent: 0px; text-transform: none; word-spacing: 0px; background-color: rgb(248, 249, 250); display: inline; float: none;&quot;&gt;Done&lt;/span&gt;" style="text;whiteSpace=wrap;html=1;" vertex="1" parent="1">
          <mxGeometry x="1360" y="25" width="50" height="30" as="geometry" />
        </mxCell>
        <mxCell id="3h8HmO69oXsrCkOUnHmT-31" value="&lt;span style=&quot;color: rgb(0 , 0 , 0) ; font-family: &amp;#34;helvetica&amp;#34; ; font-size: 12px ; font-style: normal ; font-weight: 400 ; letter-spacing: normal ; text-align: center ; text-indent: 0px ; text-transform: none ; word-spacing: 0px ; background-color: rgb(248 , 249 , 250) ; display: inline ; float: none&quot;&gt;In Progress&lt;/span&gt;" style="text;whiteSpace=wrap;html=1;" vertex="1" parent="1">
          <mxGeometry x="1360" y="100" width="70" height="30" as="geometry" />
        </mxCell>
        <mxCell id="3h8HmO69oXsrCkOUnHmT-32" value="Footer" style="rounded=0;whiteSpace=wrap;html=1;fillColor=#d5e8d4;strokeColor=#000000;" vertex="1" parent="1">
          <mxGeometry x="1170" y="740" width="240" height="60" as="geometry" />
        </mxCell>
        <mxCell id="3h8HmO69oXsrCkOUnHmT-37" value="" style="rounded=0;whiteSpace=wrap;html=1;fillColor=#dae8fc;strokeColor=#6c8ebf;" vertex="1" parent="1">
          <mxGeometry x="1168" y="20" width="40" height="40" as="geometry" />
        </mxCell>
        <mxCell id="3h8HmO69oXsrCkOUnHmT-38" value="&lt;div style=&quot;text-align: center&quot;&gt;&lt;span&gt;&lt;font face=&quot;helvetica&quot;&gt;Mike&lt;/font&gt;&lt;/span&gt;&lt;/div&gt;" style="text;whiteSpace=wrap;html=1;" vertex="1" parent="1">
          <mxGeometry x="1218" y="25" width="70" height="30" as="geometry" />
        </mxCell>
        <mxCell id="3h8HmO69oXsrCkOUnHmT-39" value="" style="rounded=0;whiteSpace=wrap;html=1;fillColor=#f8cecc;strokeColor=#b85450;" vertex="1" parent="1">
          <mxGeometry x="1168" y="95" width="40" height="40" as="geometry" />
        </mxCell>
        <mxCell id="3h8HmO69oXsrCkOUnHmT-40" value="&lt;div style=&quot;text-align: center&quot;&gt;&lt;span&gt;&lt;font face=&quot;helvetica&quot;&gt;Max&lt;/font&gt;&lt;/span&gt;&lt;/div&gt;" style="text;whiteSpace=wrap;html=1;" vertex="1" parent="1">
          <mxGeometry x="1218" y="100" width="70" height="30" as="geometry" />
        </mxCell>
        <mxCell id="3h8HmO69oXsrCkOUnHmT-43" value="2" style="rounded=0;whiteSpace=wrap;html=1;" vertex="1" parent="1">
          <mxGeometry x="1120" y="692.5" width="50" height="30" as="geometry" />
        </mxCell>
        <mxCell id="3h8HmO69oXsrCkOUnHmT-44" value="3" style="rounded=0;whiteSpace=wrap;html=1;" vertex="1" parent="1">
          <mxGeometry x="1120" y="337.5" width="50" height="30" as="geometry" />
        </mxCell>
        <mxCell id="3h8HmO69oXsrCkOUnHmT-45" value="1" style="rounded=0;whiteSpace=wrap;html=1;" vertex="1" parent="1">
          <mxGeometry x="1120" y="395" width="50" height="30" as="geometry" />
        </mxCell>
        <mxCell id="3h8HmO69oXsrCkOUnHmT-46" value="1" style="rounded=0;whiteSpace=wrap;html=1;" vertex="1" parent="1">
          <mxGeometry x="1120" y="635" width="50" height="30" as="geometry" />
        </mxCell>
        <mxCell id="3h8HmO69oXsrCkOUnHmT-47" value="Navbar" style="rounded=0;whiteSpace=wrap;html=1;fillColor=#d5e8d4;" vertex="1" parent="1">
          <mxGeometry x="1490" y="260" width="310" height="60" as="geometry" />
        </mxCell>
        <mxCell id="3h8HmO69oXsrCkOUnHmT-50" value="Sidebar cards" style="rounded=0;whiteSpace=wrap;html=1;verticalAlign=top;fillColor=#d5e8d4;" vertex="1" parent="1">
          <mxGeometry x="1680" y="320" width="120" height="420" as="geometry" />
        </mxCell>
        <mxCell id="3h8HmO69oXsrCkOUnHmT-55" value="Profile cards" style="rounded=0;whiteSpace=wrap;html=1;fillColor=#d5e8d4;" vertex="1" parent="1">
          <mxGeometry x="1690" y="350" width="100" height="60" as="geometry" />
        </mxCell>
        <mxCell id="3h8HmO69oXsrCkOUnHmT-56" value="..." style="rounded=0;whiteSpace=wrap;html=1;fillColor=#d5e8d4;" vertex="1" parent="1">
          <mxGeometry x="1690" y="420" width="100" height="60" as="geometry" />
        </mxCell>
        <mxCell id="3h8HmO69oXsrCkOUnHmT-57" value="Footer" style="rounded=0;whiteSpace=wrap;html=1;fillColor=#d5e8d4;strokeColor=#000000;" vertex="1" parent="1">
          <mxGeometry x="1490" y="740" width="310" height="60" as="geometry" />
        </mxCell>
        <mxCell id="3h8HmO69oXsrCkOUnHmT-62" value="PROFILE" style="text;html=1;strokeColor=none;fillColor=none;align=center;verticalAlign=middle;whiteSpace=wrap;rounded=0;fontSize=24;fontStyle=1" vertex="1" parent="1">
          <mxGeometry x="1220" y="220" width="150" height="30" as="geometry" />
        </mxCell>
        <mxCell id="3h8HmO69oXsrCkOUnHmT-63" value="FEED" style="text;html=1;strokeColor=none;fillColor=none;align=center;verticalAlign=middle;whiteSpace=wrap;rounded=0;fontSize=24;fontStyle=1" vertex="1" parent="1">
          <mxGeometry x="1570" y="220" width="150" height="30" as="geometry" />
        </mxCell>
        <mxCell id="3h8HmO69oXsrCkOUnHmT-64" value="PostForm" style="rounded=0;whiteSpace=wrap;html=1;" vertex="1" parent="1">
          <mxGeometry x="1580" y="320" width="100" height="60" as="geometry" />
        </mxCell>
        <mxCell id="3h8HmO69oXsrCkOUnHmT-65" value="FeedCards" style="rounded=0;whiteSpace=wrap;html=1;" vertex="1" parent="1">
          <mxGeometry x="1580" y="380" width="100" height="360" as="geometry" />
        </mxCell>
        <mxCell id="3h8HmO69oXsrCkOUnHmT-66" value="FeedSidebar" style="rounded=0;whiteSpace=wrap;html=1;verticalAlign=top;" vertex="1" parent="1">
          <mxGeometry x="1490" y="320" width="90" height="420" as="geometry" />
        </mxCell>
        <mxCell id="3h8HmO69oXsrCkOUnHmT-67" value="" style="rounded=0;whiteSpace=wrap;html=1;fontSize=24;strokeColor=#000000;" vertex="1" parent="1">
          <mxGeometry x="1500" y="350" width="70" height="50" as="geometry" />
        </mxCell>
        <mxCell id="3h8HmO69oXsrCkOUnHmT-68" value="" style="rounded=0;whiteSpace=wrap;html=1;fontSize=24;strokeColor=#000000;" vertex="1" parent="1">
          <mxGeometry x="1500" y="420" width="70" height="50" as="geometry" />
        </mxCell>
        <mxCell id="3h8HmO69oXsrCkOUnHmT-69" value="" style="rounded=0;whiteSpace=wrap;html=1;fontSize=24;strokeColor=#000000;" vertex="1" parent="1">
          <mxGeometry x="1500" y="495" width="70" height="50" as="geometry" />
        </mxCell>
        <mxCell id="3h8HmO69oXsrCkOUnHmT-70" value="" style="rounded=0;whiteSpace=wrap;html=1;fillColor=#f8cecc;strokeColor=#b85450;" vertex="1" parent="1">
          <mxGeometry x="1680" y="335" width="40" height="30" as="geometry" />
        </mxCell>
        <mxCell id="3h8HmO69oXsrCkOUnHmT-71" value="" style="rounded=0;whiteSpace=wrap;html=1;fillColor=#f8cecc;strokeColor=#b85450;" vertex="1" parent="1">
          <mxGeometry x="1680" y="395" width="40" height="30" as="geometry" />
        </mxCell>
        <mxCell id="3h8HmO69oXsrCkOUnHmT-72" value="" style="rounded=0;whiteSpace=wrap;html=1;fillColor=#dae8fc;strokeColor=#6c8ebf;" vertex="1" parent="1">
          <mxGeometry x="1450" y="350" width="40" height="30" as="geometry" />
        </mxCell>
      </root>
    </mxGraphModel>
  </diagram>
</mxfile>
